<svg id="Layer_1_1_" enable-background="new 0 0 64 64" height="512" viewBox="0 0 64 64" width="512" xmlns="http://www.w3.org/2000/svg"><g fill="#68607c"><path d="m55.414 17h-16.414v-2h15.586l3.414-3.414v-4.586h2v5.414z"/><path d="m48 31h9v2h-9z"/><path d="m45 22h9v2h-9z"/><path d="m60 57h-2v-4.586l-3.414-3.414h-15.586v-2h16.414l4.586 4.586z"/><path d="m46 40h8v2h-8z"/><path d="m25 17h-16.414l-4.586-4.586v-5.414h2v4.586l3.414 3.414h15.586z"/><path d="m7 31h9v2h-9z"/><path d="m10 22h9v2h-9z"/><path d="m6 57h-2v-5.414l4.586-4.586h16.414v2h-15.586l-3.414 3.414z"/><path d="m10 40h9v2h-9z"/><path d="m31 7h2v9h-2z"/><path d="m40 19h-2v-10.414l4.586-4.586h3.414v2h-2.586l-3.414 3.414z"/><path d="m26 19h-2v-9.586l-3.414-3.414h-2.586v-2h3.414l4.586 4.586z"/><path d="m31 47h2v10h-2z"/><path d="m46 60h-3.414l-4.586-4.586v-10.414h2v9.586l3.414 3.414h2.586z"/><path d="m21.414 60h-3.414v-2h2.586l3.414-3.414v-9.586h2v10.414z"/></g><circle cx="8" cy="23" fill="#ffd086" r="3"/><circle cx="5" cy="32" fill="#ffd086" r="3"/><circle cx="8" cy="41" fill="#ffd086" r="3"/><circle cx="5" cy="59" fill="#ffd086" r="3"/><circle cx="16" cy="59" fill="#ffd086" r="3"/><circle cx="32" cy="59" fill="#ffd086" r="3"/><circle cx="48" cy="59" fill="#ffd086" r="3"/><circle cx="59" cy="59" fill="#ffd086" r="3"/><circle cx="56" cy="41" fill="#ffd086" r="3"/><circle cx="59" cy="32" fill="#ffd086" r="3"/><circle cx="56" cy="23" fill="#ffd086" r="3"/><circle cx="59" cy="5" fill="#ffd086" r="3"/><circle cx="48" cy="5" fill="#ffd086" r="3"/><circle cx="32" cy="5" fill="#ffd086" r="3"/><circle cx="16" cy="5" fill="#ffd086" r="3"/><circle cx="5" cy="5" fill="#ffd086" r="3"/><path d="m39 15.57.81-.87c.83.37 1.63.8 2.39 1.3.3.18.59.38.88.59l-.92 3.05c.8.66 1.54 1.4 2.2 2.2l3.05-.92c.48.66.92 1.36 1.3 2.08.22.39.41.78.6 1.19l-2.35 2.19c.37.96.64 1.96.81 3l3.13.73c.07.62.1 1.25.1 1.89s-.03 1.27-.1 1.89l-3.13.73c-.17 1.04-.44 2.04-.81 3l2.34 2.19c-.18.41-.38.8-.59 1.19-.38.72-.82 1.42-1.3 2.08l-3.05-.92c-.66.8-1.4 1.54-2.2 2.2l.92 3.05c-.29.21-.58.41-.88.59-.76.5-1.56.93-2.39 1.31l-.81-.87v-.01l-1.38-1.47c-.96.37-1.96.64-3 .81l-.73 3.13c-.62.07-1.25.1-1.89.1s-1.27-.03-1.89-.1l-.73-3.13c-1.04-.17-2.04-.44-3-.81l-1.38 1.47-.81.87c-.83-.37-1.63-.8-2.39-1.3-.3-.18-.59-.38-.88-.59l.92-3.05c-.8-.66-1.54-1.4-2.2-2.2l-3.05.92c-.48-.66-.92-1.36-1.3-2.08-.22-.39-.41-.78-.6-1.19l2.35-2.19c-.37-.96-.64-1.96-.81-3l-3.13-.73c-.07-.62-.1-1.25-.1-1.89s.03-1.27.1-1.89l3.13-.73c.17-1.04.44-2.04.81-3l-2.34-2.19c.18-.41.38-.8.59-1.19.38-.72.82-1.42 1.3-2.08l3.05.92c.66-.8 1.4-1.54 2.2-2.2l-.92-3.05c.29-.21.58-.41.88-.59.76-.5 1.56-.93 2.39-1.31l.81.87v.01l1.38 1.47c.96-.37 1.96-.64 3-.81l.73-3.13c.62-.07 1.25-.1 1.89-.1s1.27.03 1.89.1l.73 3.13c1.04.17 2.04.44 3 .81z" fill="#4e9bb9"/><circle cx="32" cy="32" fill="#91cbd7" r="13"/><path d="m40 30v5c0 1.66-3.58 3-8 3s-8-1.34-8-3v-5c0 1.66 3.58 3 8 3s8-1.34 8-3z" fill="#ffe5ca"/><path d="m32 43c-4.42 0-8-1.34-8-3v-5c0 1.66 3.58 3 8 3s8-1.34 8-3v5c0 1.66-3.58 3-8 3z" fill="#ffe5ca"/><ellipse cx="32" cy="25" fill="#ed6571" rx="8" ry="3"/><path d="m40 25v5c0 1.66-3.58 3-8 3s-8-1.34-8-3v-5c0 1.66 3.58 3 8 3s8-1.34 8-3z" fill="#ffe5ca"/><path d="m25.947 31.959c1.467.637 3.631 1.041 6.053 1.041 4.42 0 8-1.34 8-3v-3c0 2.557-6.131 4.659-14.053 4.959z" fill="#fac7a4"/><path d="m25.947 36.959c1.467.637 3.631 1.041 6.053 1.041 4.42 0 8-1.34 8-3v-3c0 2.557-6.131 4.659-14.053 4.959z" fill="#fac7a4"/><path d="m25.947 41.959c1.467.637 3.631 1.041 6.053 1.041 4.42 0 8-1.34 8-3v-3c0 2.557-6.131 4.659-14.053 4.959z" fill="#fac7a4"/></svg>