<svg height="512" viewBox="0 0 512 512" width="512" xmlns="http://www.w3.org/2000/svg"><g id="Filled_outline" data-name="Filled outline"><path d="m416.76 69.03-55.16 163.03-5.13 15.16-16.79 49.61a34.1 34.1 0 1 1 -64.6-21.86l17.44-51.53 5.13-15.16 54.51-161.11a34.1 34.1 0 1 1 64.6 21.86z" fill="#2d7dbf"/><path d="m216 208h-56l-64 24v24h120z" fill="#2b78b8"/><rect fill="#92563a" height="40" rx="20" width="176" x="24" y="448"/><rect fill="#92563a" height="32" rx="16" width="112" x="56" y="328"/><path d="m168 448h-112a168.417 168.417 0 0 0 24-86.648v-1.352h64v1.352a168.417 168.417 0 0 0 24 86.648z" fill="#78462f"/><path d="m144 328h-64l-16-40h96z" fill="#78462f"/><path d="m72 256h80v32h-80z" fill="#6e3d26"/><path d="m152 192-24 8 8-24h-48l8 24-24-8v40l24-8-8 32h48l-8-32 24 8z" fill="#ffb531"/><path d="m216 376h-56l-64-24v-24h120z" fill="#2b78b8"/><path d="m256 328h44a36 36 0 0 0 36-36 36 36 0 0 0 -36-36h-44z" fill="#348fd9"/><rect fill="#2d7dbf" height="280" rx="32" width="64" x="424" y="24"/><rect fill="#348fd9" height="64" rx="32" width="136" x="352" y="24"/><path d="m456 488h-112v-56l16-24v-48a40 40 0 0 1 40-40 40 40 0 0 1 40 40v48l16 24z" fill="#2d7dbf"/><path d="m451.163 240h.262a36.575 36.575 0 0 1 36.575 36.575 36.582 36.582 0 0 1 -6.5 20.819l-54.589 78.85a36.575 36.575 0 0 1 -30.074 15.756h-.262a36.575 36.575 0 0 1 -36.575-36.575 36.582 36.582 0 0 1 6.5-20.819l54.589-78.85a36.575 36.575 0 0 1 30.074-15.756z" fill="#348fd9"/><path d="m216 232h40v120h-40z" fill="#348fd9"/><circle cx="300" cy="292" fill="#2a71ad" r="12"/><path d="m320 480h160v16h-160z" fill="#348fd9"/><path d="m256 256h24v72h-24z" fill="#3086cd"/><circle cx="300" cy="292" r="12"/><path d="m456 16h-72a39.752 39.752 0 0 0 -18.929 4.772l-.009-.016a41.814 41.814 0 0 0 -20.48 23.849l-64.16 189.621 15.156 5.128 4.5-13.283 48.9 18.337-9.521 28.137a44.045 44.045 0 0 0 -39.457-24.545h-36v-16a8 8 0 0 0 -8-8h-32v-16a8 8 0 0 0 -8-8h-56v-8a8 8 0 0 0 -10.53-7.59l-8.821 2.941 2.941-8.821a8 8 0 0 0 -7.59-10.53h-48a8 8 0 0 0 -7.59 10.53l2.941 8.821-8.821-2.941a8 8 0 0 0 -10.53 7.59v40a8 8 0 0 0 10.53 7.59l10.17-3.39-2.946 11.8h-9.754a8 8 0 0 0 -8 8v24a8 8 0 0 0 -7.428 10.971l11.728 29.314a24 24 0 0 0 3.546 47.715 160.725 160.725 0 0 1 -5.665 36.176 160.651 160.651 0 0 1 -14.798 35.824h-7.383a28 28 0 0 0 0 56h136a28 28 0 0 0 0-56h-7.389a161.118 161.118 0 0 1 -19.245-57.944l3.825 1.434a8 8 0 0 0 2.809.51h56a8 8 0 0 0 8-8v-16h32a8 8 0 0 0 8-8v-16h36a43.991 43.991 0 0 0 36.958-20.168 42 42 0 0 0 10.3-16.437l68.821-203.395h39.921a39.788 39.788 0 0 0 24-8.022v112.022h-48v-80h-16v129.191c-.51.656-1.009 1.323-1.485 2.011l-54.589 78.851a44.365 44.365 0 0 0 -7.926 25.372v50.153l-14.656 21.984a8.005 8.005 0 0 0 -1.344 4.438v48h-16v16h160v-16h-16v-48a8.005 8.005 0 0 0 -1.344-4.438l-14.656-21.984v-45.578c0-.054 0-.11 0-.164l40.077-57.889a44.365 44.365 0 0 0 7.923-25.372v-220.575a40.045 40.045 0 0 0 -40-40zm-376 204.9v-17.8l13.47 4.49a8 8 0 0 0 10.12-10.12l-4.49-13.47h25.8l-4.49 13.47a8 8 0 0 0 10.12 10.12l13.47-4.49v17.8l-13.47-4.49a8 8 0 0 0 -10.291 9.53l5.515 22.06h-27.508l5.515-22.06a8 8 0 0 0 -10.291-9.53zm0 43.1h64v16h-64zm68.184 32-9.6 24h-53.168l-9.6-24zm-84.184 48a7.977 7.977 0 0 1 8-8h16v16h-16a8.009 8.009 0 0 1 -8-8zm116 112a12 12 0 0 1 0 24h-136a12 12 0 0 1 0-24zm-25.492-16h-85.008a176.721 176.721 0 0 0 12.1-31.558 176.731 176.731 0 0 0 6.274-40.442h28.01l20.718 7.769a177.164 177.164 0 0 0 17.906 64.231zm53.492-72h-46.549l-57.451-21.544v-10.456h104zm0-48h-52.184l11.612-29.029a8 8 0 0 0 -7.428-10.971v-16h48zm0-72h-65.754l-2.95-11.8 10.174 3.392a8 8 0 0 0 10.53-7.592v-16h48zm40 80v16h-24v-104h24zm52-8h-36v-56h36a28 28 0 0 1 0 56zm148 120v40h-96v-45.578l14.656-21.984a8.005 8.005 0 0 0 1.344-4.438v-18.4a44.37 44.37 0 0 0 28.575 10.4h.262a44.58 44.58 0 0 0 35.163-17.191v25.191a8.005 8.005 0 0 0 1.344 4.438l7.708 11.562h-65.052v16zm26.92-147.16-54.589 78.85a28.582 28.582 0 0 1 -23.494 12.31h-.262a28.576 28.576 0 0 1 -23.5-44.84l54.589-78.85a28.582 28.582 0 0 1 23.499-12.31h.262a28.576 28.576 0 0 1 23.5 44.84zm5.08-50.44a44.37 44.37 0 0 0 -28.575-10.4h-.262a44.512 44.512 0 0 0 -19.163 4.352v-20.352h48zm-125.9-13.155-48.9-18.337 45.124-133.36a39.993 39.993 0 0 0 33.676 18.452h15.187zm101.9-149.245h-72a24 24 0 0 1 0-48h72a24 24 0 0 1 0 48z"/></g></svg>