<svg id="Capa_1" enable-background="new 0 0 507.789 507.789" height="512" viewBox="0 0 507.789 507.789" width="512" xmlns="http://www.w3.org/2000/svg"><path d="m481.797 356.038h-455.805c-10.213 0-18.492-8.279-18.492-18.492 0-10.213 8.279-18.492 18.492-18.492h455.806c10.213 0 18.492 8.279 18.492 18.492-.001 10.213-8.28 18.492-18.493 18.492z" fill="#7ca1b1"/><path d="m481.797 319.055h-30c10.213 0 18.492 8.279 18.492 18.491 0 10.213-8.279 18.492-18.492 18.492h30c10.213 0 18.492-8.279 18.492-18.492 0-10.212-8.279-18.491-18.492-18.491z" fill="#678d98"/><path d="m115.664 195.749h176.571v123.306h-176.571z" fill="#e8b800"/><path d="m189.279 257.402h-97.96c-4.915 0-8.33-4.891-6.637-9.506l17.435-47.513c1.022-2.784 3.672-4.635 6.637-4.635h63.091c2.965 0 5.616 1.851 6.637 4.635l17.435 47.513c1.692 4.615-1.723 9.506-6.638 9.506z" fill="#fed402"/><path d="m195.916 247.896-17.435-47.513c-1.022-2.784-3.672-4.635-6.637-4.635h-30c2.965 0 5.616 1.851 6.637 4.635l17.435 47.513c1.693 4.614-1.722 9.506-6.637 9.506h30c4.915 0 8.33-4.891 6.637-9.506z" fill="#fac600"/><path d="m422.941 247.896-17.435-47.513c-1.022-2.784-3.672-4.635-6.637-4.635h-11.236-51.856-87.948v61.653h70.513 69.29 28.67c4.917.001 8.333-4.89 6.639-9.505z" fill="#e8b800"/><path d="m422.941 247.896-17.435-47.513c-1.022-2.784-3.672-4.635-6.637-4.635h-11.236-18.763c2.965 0 5.616 1.851 6.637 4.635l17.435 47.513c1.693 4.614-1.722 9.506-6.637 9.506h1.33 28.67c4.914 0 8.33-4.891 6.636-9.506z" fill="#d7aa02"/><path d="m301.225 257.402h-97.96c-4.915 0-8.33-4.891-6.637-9.506l17.435-47.513c1.022-2.784 3.672-4.635 6.637-4.635h63.091c2.965 0 5.616 1.851 6.637 4.635l17.435 47.513c1.692 4.615-1.723 9.506-6.638 9.506z" fill="#fed402"/><path d="m307.862 247.896-17.435-47.513c-1.022-2.784-3.672-4.635-6.637-4.635h-30c2.965 0 5.616 1.851 6.637 4.635l17.435 47.513c1.693 4.614-1.722 9.506-6.637 9.506h30c4.915 0 8.33-4.891 6.637-9.506z" fill="#fac600"/><path d="m133.222 319.055h-97.96c-4.915 0-8.33-4.891-6.637-9.506l17.435-47.513c1.022-2.784 3.672-4.635 6.637-4.635h63.091c2.965 0 5.616 1.851 6.637 4.635l17.435 47.513c1.693 4.615-1.723 9.506-6.638 9.506z" fill="#fed402"/><path d="m139.859 309.549-17.435-47.513c-1.022-2.784-3.672-4.635-6.637-4.635h-30c2.965 0 5.616 1.851 6.637 4.635l17.435 47.513c1.693 4.614-1.722 9.506-6.637 9.506h30c4.915 0 8.331-4.891 6.637-9.506z" fill="#fac600"/><path d="m245.335 319.055h-97.96c-4.915 0-8.33-4.891-6.637-9.506l17.435-47.513c1.022-2.784 3.672-4.635 6.637-4.635h63.09c2.965 0 5.616 1.851 6.637 4.635l17.435 47.513c1.693 4.615-1.722 9.506-6.637 9.506z" fill="#fed402"/><path d="m251.972 309.549-17.435-47.513c-1.022-2.784-3.672-4.635-6.637-4.635h-30c2.965 0 5.616 1.851 6.637 4.635l17.435 47.513c1.693 4.614-1.722 9.506-6.637 9.506h30c4.915 0 8.33-4.891 6.637-9.506z" fill="#fac600"/><path d="m479.165 309.549-17.435-47.513c-1.022-2.784-3.672-4.635-6.637-4.635h-11.236-51.856-87.948v61.653h70.513 69.29 28.67c4.916.001 8.332-4.89 6.639-9.505z" fill="#e8b800"/><path d="m479.165 309.549-17.435-47.513c-1.022-2.784-3.672-4.635-6.637-4.635h-11.236-18.764c2.965 0 5.616 1.851 6.637 4.635l17.435 47.513c1.693 4.614-1.722 9.505-6.637 9.505h1.33 28.67c4.914.001 8.33-4.89 6.637-9.505z" fill="#d7aa02"/><path d="m357.448 319.055h-97.96c-4.915 0-8.33-4.891-6.637-9.506l17.435-47.513c1.022-2.784 3.672-4.635 6.637-4.635h63.091c2.965 0 5.616 1.851 6.637 4.635l17.435 47.513c1.692 4.615-1.723 9.506-6.638 9.506z" fill="#fed402"/><path d="m364.085 309.549-17.435-47.513c-1.022-2.784-3.672-4.635-6.637-4.635h-30c2.965 0 5.616 1.851 6.637 4.635l17.435 47.513c1.693 4.614-1.722 9.506-6.637 9.506h30c4.915 0 8.33-4.891 6.637-9.506z" fill="#fac600"/><path d="m360.988 186.243-17.435-47.513c-1.022-2.784-3.672-4.635-6.637-4.635h-11.236-51.856-87.948v61.653h70.513 69.29 28.67c4.917.001 8.332-4.891 6.639-9.505z" fill="#e8b800"/><path d="m360.988 186.243-17.435-47.513c-1.021-2.784-3.672-4.635-6.637-4.635h-11.236-18.765c2.966 0 5.616 1.851 6.637 4.635l17.435 47.513c1.693 4.614-1.722 9.505-6.637 9.505h1.33 28.67c4.916.001 8.331-4.891 6.638-9.505z" fill="#d7aa02"/><path d="m239.271 195.749h-97.96c-4.915 0-8.33-4.891-6.637-9.506l17.435-47.513c1.022-2.784 3.672-4.635 6.637-4.635h63.091c2.965 0 5.616 1.851 6.637 4.635l17.435 47.513c1.693 4.614-1.723 9.506-6.638 9.506z" fill="#fed402"/><path d="m245.908 186.243-17.435-47.513c-1.022-2.784-3.672-4.635-6.637-4.635h-30c2.965 0 5.616 1.851 6.637 4.635l17.435 47.513c1.693 4.614-1.722 9.506-6.637 9.506h30c4.915 0 8.331-4.892 6.637-9.506z" fill="#fac600"/><path d="m75.01 64.973c4.142 0 7.5-3.358 7.5-7.5v-10.532c0-4.142-3.358-7.5-7.5-7.5s-7.5 3.358-7.5 7.5v10.531c0 4.143 3.358 7.501 7.5 7.501z"/><path d="m89.563 80.579h10.532c4.142 0 7.5-3.358 7.5-7.5s-3.358-7.5-7.5-7.5h-10.532c-4.142 0-7.5 3.358-7.5 7.5s3.358 7.5 7.5 7.5z"/><path d="m73.957 80.132c-4.142 0-7.5 3.358-7.5 7.5v10.531c0 4.142 3.358 7.5 7.5 7.5s7.5-3.358 7.5-7.5v-10.531c0-4.142-3.358-7.5-7.5-7.5z"/><path d="m48.873 79.525h10.532c4.142 0 7.5-3.358 7.5-7.5s-3.358-7.5-7.5-7.5h-10.532c-4.142 0-7.5 3.358-7.5 7.5s3.357 7.5 7.5 7.5z"/><path d="m453.993 427.657c4.142 0 7.5-3.358 7.5-7.5v-10.531c0-4.142-3.358-7.5-7.5-7.5s-7.5 3.358-7.5 7.5v10.531c0 4.143 3.358 7.5 7.5 7.5z"/><path d="m479.077 428.264h-10.531c-4.142 0-7.5 3.358-7.5 7.5s3.358 7.5 7.5 7.5h10.531c4.142 0 7.5-3.358 7.5-7.5s-3.358-7.5-7.5-7.5z"/><path d="m452.939 442.817c-4.142 0-7.5 3.358-7.5 7.5v10.531c0 4.142 3.358 7.5 7.5 7.5s7.5-3.358 7.5-7.5v-10.531c0-4.142-3.358-7.5-7.5-7.5z"/><path d="m438.386 427.21h-10.531c-4.142 0-7.5 3.358-7.5 7.5s3.358 7.5 7.5 7.5h10.531c4.142 0 7.5-3.358 7.5-7.5s-3.358-7.5-7.5-7.5z"/><path d="m487.094 312.099c.014-1.728-.278-3.467-.889-5.133l-17.435-47.513c-2.096-5.713-7.593-9.551-13.678-9.551h-24.249c-.045-1.548-.315-3.098-.862-4.589l-17.433-47.513c-2.096-5.713-7.593-9.551-13.678-9.551h-29.979c-.045-1.548-.315-3.098-.862-4.589l-17.435-47.513c-2.096-5.713-7.593-9.551-13.678-9.551h-115.08-4.658-7.998c-4.142 0-7.5 3.358-7.5 7.5s3.358 7.5 7.5 7.5h7.998 4.357l17.119 46.653h-1.608-95.121l17.119-46.653h20.135c4.142 0 7.5-3.358 7.5-7.5s-3.358-7.5-7.5-7.5h-20.436c-6.085 0-11.582 3.838-13.678 9.551l-17.435 47.513c-.547 1.491-.816 3.041-.862 4.589h-18.018c-6.084 0-11.581 3.837-13.679 9.551l-17.431 47.512c-.547 1.491-.816 3.041-.862 4.589h-24.082c-6.085 0-11.582 3.838-13.678 9.551l-17.435 47.513c-.611 1.666-.903 3.405-.889 5.133-11.8 2.454-20.694 12.931-20.694 25.449 0 14.332 11.66 25.991 25.992 25.991h134.449c4.142 0 7.5-3.358 7.5-7.5s-3.358-7.5-7.5-7.5h-134.449c-6.061 0-10.992-4.931-10.992-10.991 0-6.061 4.931-10.992 10.992-10.992h446.536 9.27c6.061 0 10.992 4.931 10.992 10.992s-4.931 10.991-10.992 10.991h-291.357c-4.142 0-7.5 3.358-7.5 7.5s3.358 7.5 7.5 7.5h291.356c14.332 0 25.992-11.66 25.992-25.991 0-12.518-8.894-22.995-20.695-25.448zm-71.406-62.197h-10.329l-5.275-14.506c-1.416-3.893-5.72-5.902-9.611-4.485-3.893 1.416-5.901 5.719-4.485 9.611l3.411 9.38h-39.386l-5.275-14.506c-1.416-3.893-5.719-5.902-9.611-4.485-3.893 1.416-5.901 5.719-4.485 9.611l3.411 9.38h-18.288c-.045-1.548-.315-3.098-.862-4.589l-15.435-42.064h50.513l5.22 14.356c1.108 3.047 3.984 4.939 7.049 4.939.851 0 1.717-.146 2.563-.454 3.893-1.416 5.901-5.719 4.485-9.611l-3.356-9.23h32.628zm-163.277 39.072-8.833-24.072h17.666zm-112.113 0-8.833-24.072h17.666zm55.973-61.881-8.749-23.844h17.499zm56.678-43.434-15.435-42.064h47.044l5.282 14.526c1.108 3.047 3.984 4.939 7.049 4.939.851 0 1.717-.146 2.563-.454 3.893-1.416 5.901-5.719 4.485-9.611l-3.418-9.4h36.097l17.119 46.653h-14.964l-5.879-16.168c-1.416-3.893-5.719-5.901-9.611-4.485-3.893 1.416-5.901 5.719-4.485 9.611l4.015 11.042h-30.9l-5.88-16.168c-1.416-3.893-5.719-5.9-9.612-4.485-3.893 1.416-5.9 5.719-4.485 9.612l4.015 11.042h-22.138c-.045-1.549-.315-3.099-.862-4.59zm30.541 19.59 17.119 46.653h-1.609-95.12l17.119-46.653zm-174.437 0h62.491l17.119 46.653h-96.729zm-73.176 108.306 17.119-46.653h62.491l17.119 46.653zm112.113 0 17.119-46.653h62.491l17.119 46.653zm207.234 0h-95.121l17.119-46.653h62.491l17.119 46.653zm65.501 0-5.248-14.432c-1.416-3.893-5.718-5.9-9.612-4.485-3.893 1.416-5.9 5.719-4.485 9.612l3.384 9.305h-32.777c-.045-1.548-.315-3.098-.862-4.589l-15.435-42.064h9.656l5.248 14.431c1.108 3.047 3.984 4.939 7.049 4.939.851 0 1.717-.146 2.563-.454 3.893-1.416 5.901-5.719 4.485-9.611l-3.384-9.305h34.997 5.534l5.248 14.432c1.108 3.046 3.984 4.938 7.049 4.938.851 0 1.717-.146 2.563-.454 3.893-1.416 5.9-5.719 4.485-9.612l-3.384-9.305h16.993l17.119 46.653h-51.186z"/></svg>