<svg height="512pt" viewBox="-25 0 512 512" width="512pt" xmlns="http://www.w3.org/2000/svg"><path d="m454.039062 374.667969c0-71.707031-99.960937-129.832031-223.269531-129.832031-123.308593 0-223.269531 58.125-223.269531 129.832031 0 71.703125 99.960938 129.832031 223.269531 129.832031 123.308594 0 223.269531-58.128906 223.269531-129.832031zm0 0" fill="#8ed7e8"/><path d="m422.59375 441.140625c-33.953125-22.789063-96.363281-54.609375-191.824219-66.476563-99.324219-12.34375-116.171875-70.664062-115.386719-111.171874-64.660156 22.746093-107.882812 64.023437-107.882812 111.171874 0 71.707032 99.960938 129.835938 223.269531 129.835938 81.53125 0 152.855469-25.410156 191.824219-63.359375zm0 0" fill="#7ac1dd"/><path d="m266.488281 43.21875c0 19.722656-15.992187 35.714844-35.71875 35.714844-19.726562 0-35.714843-15.992188-35.714843-35.714844 0-19.726562 15.988281-35.71875 35.714843-35.71875 19.726563 0 35.71875 15.992188 35.71875 35.71875zm0 0" fill="#ccf8ff"/><path d="m266.488281 238.25v-76.988281c0-19.726563-15.992187-35.71875-35.71875-35.71875-19.726562 0-35.714843 15.992187-35.714843 35.71875v76.988281c0 25.183594-15.171876 48.03125-38.554688 57.378906-34.433594 13.761719-57.015625 36.824219-57.015625 62.960938 0 42.164062 58.777344 76.34375 131.285156 76.34375 72.507813 0 131.289063-34.179688 131.289063-76.34375 0-26.136719-22.582032-49.199219-57.015625-62.960938-23.386719-9.347656-38.554688-32.195312-38.554688-57.378906zm0 0" fill="#abebf4"/><path d="m230.769531 434.933594c45.960938 0 86.410157-13.738282 109.863281-34.535156-30.113281-10.875-66.597656-20.355469-109.863281-25.734376-62.152343-7.722656-92.007812-33.453124-105.460937-61.550781-16.222656 12.699219-25.824219 28.4375-25.824219 45.476563 0 42.164062 58.777344 76.34375 131.285156 76.34375zm0 0" fill="#8ed7e8"/><path d="m274.015625 239.71875c-.015625-.488281-.027344-78.457031-.027344-78.457031 0-23.828125-19.386719-43.214844-43.21875-43.214844-23.828125 0-43.214843 19.386719-43.214843 43.214844 0 0-.015626 77.972656-.027344 78.464843-50.464844 5.652344-96.609375 21.265626-130.511719 44.253907-36.765625 24.925781-57.015625 57.132812-57.015625 90.6875 0 17.960937 5.644531 35.394531 16.777344 51.8125 1.453125 2.140625 5.484375 5.144531 10.417968 2 3.492188-2.226563 4.324219-6.988281 1.996094-10.417969-9.417968-13.886719-14.191406-28.488281-14.191406-43.394531 0-28.425781 17.910156-56.222657 50.433594-78.273438 30.976562-21.003906 73.097656-35.5 119.492187-41.257812-4.828125 15.082031-16.03125 27.460937-31.210937 33.527343-38.652344 15.449219-61.730469 41.589844-61.730469 69.925782 0 23.175781 14.980469 44.648437 42.183594 60.464844 25.921875 15.078124 60.230469 23.378906 96.601562 23.378906 31.96875 0 63.113281-6.617188 87.699219-18.628906 25.152344-12.292969 42.390625-29.667969 48.53125-48.9375 1.257812-3.945313-.921875-8.164063-4.867188-9.421876-3.945312-1.257812-8.164062.921876-9.425781 4.867188-4.886719 15.328125-19.382812 29.539062-40.820312 40.015625-22.578125 11.03125-51.386719 17.105469-81.117188 17.105469-33.761719 0-65.390625-7.582032-89.0625-21.34375-22.390625-13.023438-34.722656-29.890625-34.722656-47.5 0-21.976563 19.550781-42.910156 52.296875-56 26.285156-10.503906 43.273438-35.757813 43.273438-64.339844v-76.988281c0-15.5625 12.65625-28.21875 28.214843-28.21875 15.558594 0 28.21875 12.660156 28.21875 28.21875v76.988281c0 28.582031 16.984375 53.835938 43.269531 64.339844 25.398438 10.152344 43.546876 25.597656 49.796876 42.382812 1.445312 3.882813 5.769531 5.855469 9.648437 4.414063 3.882813-1.445313 5.855469-5.765625 4.410156-9.648438-7.835937-21.046875-28.539062-39.183593-58.289062-51.078125-15.179688-6.0625-26.382813-18.445312-31.210938-33.53125 46.601563 5.785156 88.898438 20.398438 119.890625 41.53125 32.265625 22.003906 50.035156 49.707032 50.035156 78.003906 0 31.898438-21.898437 62.199219-61.660156 85.324219-41.046875 23.867188-95.773437 37.011719-154.109375 37.011719-73.996093 0-142.113281-21.363281-182.207031-57.144531-3.089844-2.757813-7.832031-2.488281-10.589844.601562-2.757812 3.089844-2.488281 7.832031.601563 10.589844 42.769531 38.167969 114.617187 60.953125 192.195312 60.953125 60.941407 0 118.347657-13.867188 161.644531-39.042969 44.578126-25.921875 69.125-60.828125 69.125-98.292969 0-66.5-78.5625-122.78125-187.523437-134.945312zm0 0"/><path d="m230.769531 86.433594c23.832031 0 43.21875-19.386719 43.21875-43.214844 0-23.832031-19.386719-43.21875-43.21875-43.21875-23.828125 0-43.214843 19.386719-43.214843 43.21875 0 23.828125 19.386718 43.214844 43.214843 43.214844zm0-71.433594c15.558594 0 28.21875 12.65625 28.21875 28.21875 0 15.558594-12.660156 28.214844-28.21875 28.214844-15.558593 0-28.214843-12.660156-28.214843-28.214844 0-15.5625 12.65625-28.21875 28.214843-28.21875zm0 0"/></svg>