<svg id="Layer_5" enable-background="new 0 0 64 64" height="512" viewBox="0 0 64 64" width="512" xmlns="http://www.w3.org/2000/svg"><path d="m34.35 38h-3.35c-1.58 0-3.1.37-4.47 1.06-1.37.68-2.59 1.68-3.53 2.94h-1v-6c0-1.72.44-3.35 1.21-4.77 1.69-3.11 4.99-5.23 8.79-5.23v4.34c0 1.25.17 2.48.5 3.66.15.54.33 1.06.54 1.57.35.85.79 1.66 1.31 2.43z" fill="#ff826e"/><path d="m62 36v6h-1c-1.89-2.52-4.85-4-8-4h-3.35c.83-1.22 1.46-2.58 1.85-4 .33-1.18.5-2.41.5-3.66v-4.34c5.52 0 10 4.48 10 10z" fill="#ff826e"/><path d="m34.43 51.03c-.28-.62-.43-1.31-.43-2.03 0-2.76 2.24-5 5-5v-4h6v4h1c2.76 0 5 2.24 5 5 0 .82-.2 1.59-.55 2.27v.01c1.5.58 2.55 2.02 2.55 3.72 0 2.21-1.79 4-4 4-.49 0-.95-.1-1.38-.26-.85 1.9-3.04 3.26-5.62 3.26-2.57 0-4.77-1.35-5.62-3.25-.43.16-.89.25-1.38.25-2.21 0-4-1.79-4-4 0-2.01 1.49-3.68 3.42-3.96z" fill="#969faa"/><path d="m32.51 34h18.98.01c-.39 1.42-1.02 2.78-1.85 4-.48.71-1.03 1.38-1.65 2h-3-6-3c-.62-.62-1.17-1.29-1.65-2-.52-.77-.96-1.58-1.31-2.43-.21-.51-.39-1.03-.54-1.57z" fill="#ccd1d9"/><path d="m32 30.34v-4.34-3.19c0-5.43 1.43-10.74 4.12-15.39l.01.01c1.47 1.58 3.55 2.57 5.87 2.57s4.4-.99 5.87-2.57l.01-.01c.96 1.65 1.75 3.39 2.38 5.19 1.14 3.25 1.74 6.7 1.74 10.2v3.19 4.34c0 1.25-.17 2.48-.5 3.66h-.01-18.98-.01c-.33-1.18-.5-2.41-.5-3.66z" fill="#e6e9ed"/><path d="m42 2c1.26 0 2.46.57 3.25 1.56.98 1.22 1.86 2.51 2.63 3.86l-.01.01c-1.47 1.58-3.55 2.57-5.87 2.57s-4.4-.99-5.87-2.57l-.01-.01c.77-1.35 1.65-2.64 2.63-3.86.79-.99 1.99-1.56 3.25-1.56z" fill="#ff826e"/><path d="m42 14c3.31 0 6 2.69 6 6s-2.69 6-6 6-6-2.69-6-6 2.69-6 6-6z" fill="#69d6f4"/><circle cx="42" cy="20" fill="#4fc1e9" r="2"/><g fill="#fcd770"><path d="m26 9c1.1 0 2 .9 2 2s-.9 2-2 2c-.55 0-1.05-.22-1.41-.59-.37-.36-.59-.86-.59-1.41 0-1.1.9-2 2-2z"/><path d="m19.41 17.59c.37.36.59.86.59 1.41 0 1.1-.9 2-2 2-.55 0-1.05-.22-1.41-.59-.37-.36-.59-.86-.59-1.41 0-1.1.9-2 2-2 .55 0 1.05.22 1.41.59z"/><path d="m9.41 27.59c.37.36.59.86.59 1.41 0 1.1-.9 2-2 2s-2-.9-2-2 .9-2 2-2c.55 0 1.05.22 1.41.59z"/></g><path d="m53 25.051v-2.245c0-7.194-2.475-14.251-6.97-19.87-.985-1.23-2.454-1.936-4.03-1.936s-3.045.706-4.03 1.937c-4.495 5.618-6.97 12.675-6.97 19.869v2.245c-5.598.507-10 5.221-10 10.949v7h2.5l.3-.399c1.691-2.255 4.383-3.601 7.2-3.601h2.848c.439.597.912 1.173 1.445 1.707l.293.293h2.414v2.083c-2.834.478-5 2.949-5 5.917 0 .471.06.927.163 1.367-1.552.621-2.713 1.989-3.053 3.633h-24.11c-1.654 0-3-1.346-3-3v-39h-2v39c0 2.757 2.243 5 5 5h24.101c.465 2.279 2.484 4 4.899 4 .301 0 .598-.027.89-.08 1.199 1.835 3.487 3.08 6.11 3.08 2.59 0 4.898-1.187 6.117-3.085.296.057.591.085.883.085 2.757 0 5-2.243 5-5 0-1.756-.915-3.297-2.288-4.189.185-.582.288-1.186.288-1.811 0-3.309-2.691-6-6-6v-2h2.414l.293-.293c.534-.534 1.006-1.11 1.445-1.707h2.848c2.817 0 5.509 1.346 7.2 3.601l.3.399h2.5v-7c0-5.728-4.402-10.442-10-10.949zm-13.469-20.864c.604-.754 1.504-1.187 2.469-1.187s1.865.433 2.469 1.186c.783.979 1.478 2.018 2.128 3.083-1.275 1.121-2.882 1.731-4.597 1.731s-3.322-.61-4.597-1.731c.65-1.064 1.345-2.103 2.128-3.082zm-6.531 18.619c0-4.811 1.2-9.546 3.407-13.782 1.584 1.262 3.556 1.976 5.593 1.976s4.009-.714 5.593-1.976c2.207 4.237 3.407 8.972 3.407 13.782v7.537c0 .905-.104 1.792-.288 2.657h-17.424c-.184-.865-.288-1.752-.288-2.657zm-2 14.194c-3.028 0-5.937 1.271-8 3.452v-4.452c0-4.624 3.507-8.441 8-8.941v3.284c0 2.354.561 4.619 1.603 6.657zm15 8c2.206 0 4 1.794 4 4 0 .374-.065.734-.164 1.085-.273-.047-.55-.085-.836-.085-1.78 0-3.387.927-4.299 2.478l1.725 1.014c.548-.934 1.511-1.492 2.574-1.492 1.654 0 3 1.346 3 3 0 1.991-1.92 3.587-4.033 2.803l-.879-.326-.382.856c-.712 1.595-2.603 2.667-4.706 2.667-2.757 0-5-1.794-5-4h-2c0 .338.041.668.104.991-.035.001-.069.009-.104.009-1.654 0-3-1.346-3-3 0-1.258.799-2.361 1.935-2.797 1.065 1.678 2.935 2.797 5.065 2.797v-2c-2.206 0-4-1.794-4-4s1.794-4 4-4h1v-4h4v4zm1.577-6h-11.154c-1.107-1.179-1.963-2.534-2.542-4h16.238c-.579 1.466-1.436 2.821-2.542 4zm13.423 1.452c-2.063-2.181-4.972-3.452-8-3.452h-1.603c1.042-2.037 1.603-4.303 1.603-6.657v-3.284c4.493.5 8 4.317 8 8.941z"/><path d="m35 29h2v2h-2z"/><path d="m39 29h2v2h-2z"/><path d="m43 29h2v2h-2z"/><path d="m47 29h2v2h-2z"/><circle cx="42" cy="6" r="1"/><path d="m42 27c3.86 0 7-3.14 7-7s-3.14-7-7-7-7 3.14-7 7 3.14 7 7 7zm0-12c2.757 0 5 2.243 5 5s-2.243 5-5 5-5-2.243-5-5 2.243-5 5-5z"/><path d="m42 23c1.654 0 3-1.346 3-3s-1.346-3-3-3-3 1.346-3 3 1.346 3 3 3zm0-4c.551 0 1 .449 1 1s-.449 1-1 1-1-.449-1-1 .449-1 1-1z"/><path d="m7 39v9h2v-9l1.2 1.6 1.6-1.2-3.8-5.067-3.8 5.067 1.6 1.2z"/><path d="m7 50h2v2h-2z"/><path d="m17 50h2v2h-2z"/><path d="m19 29 1.2 1.6 1.6-1.2-3.8-5.067-3.8 5.067 1.6 1.2 1.2-1.6v19h2z"/><path d="m8 32c1.654 0 3-1.346 3-3 0-.462-.113-.894-.301-1.285l6.015-6.015c.392.187.824.3 1.286.3 1.654 0 3-1.346 3-3 0-.462-.113-.894-.301-1.285l4.015-4.015c.392.187.824.3 1.286.3 1.654 0 3-1.346 3-3s-1.346-3-3-3-3 1.346-3 3c0 .462.113.894.301 1.285l-4.015 4.015c-.392-.187-.824-.3-1.286-.3-1.654 0-3 1.346-3 3 0 .462.113.894.301 1.285l-6.015 6.015c-.392-.187-.824-.3-1.286-.3-1.654 0-3 1.346-3 3s1.346 3 3 3zm18-22c.551 0 1 .449 1 1s-.449 1-1 1-1-.449-1-1 .449-1 1-1zm-8 8c.551 0 1 .449 1 1s-.449 1-1 1-1-.449-1-1 .449-1 1-1zm-10 10c.551 0 1 .449 1 1s-.449 1-1 1-1-.449-1-1 .449-1 1-1z"/></svg>