<svg height="512" viewBox="0 0 64 64" width="512" xmlns="http://www.w3.org/2000/svg"><path d="m61 58v3h-26v-3a6 6 0 0 1 6-6h3l1.24 4h5.52l1.24-4h3a6 6 0 0 1 6 6z" fill="#57a4ff"/><circle cx="59" cy="9" fill="#ffeb99" r="2"/><path d="m57 42v1a1 1 0 0 1 -1 1h-2v-3h2a1 1 0 0 1 1 1z" fill="#ffc477"/><path d="m57 37v1l-3 3v-3l-8-2-4 2v3l-3-3v-1a6 6 0 0 1 6-6h6a6 6 0 0 1 6 6z" fill="#c0ab91"/><circle cx="55" cy="19" fill="#ffeb99" r="2"/><path d="m54 41v3a6 6 0 0 1 -12 0v-6l4-2 8 2z" fill="#ffdaaa"/><path d="m52 52-1.24 4h-5.52l-1.24-4z" fill="#ffeb99"/><circle cx="47" cy="25" fill="#ffeb99" r="2"/><path d="m42 41v3h-2a1 1 0 0 1 -1-1v-1a1 1 0 0 1 1-1z" fill="#ffc477"/><path d="m39 21a18 18 0 0 1 -12 16.97v7.03h-12v-7.03a18 18 0 1 1 19.25-29.14 17.387 17.387 0 0 1 2.87 4.17 17.833 17.833 0 0 1 1.77 6 18.851 18.851 0 0 1 .11 2z" fill="#ffeb99"/><path d="m30 23-2.6.65 1.38 2.3-2.83 2.83-2.3-1.38-.65 2.6h-4l-.65-2.6-2.3 1.38-2.83-2.83 1.38-2.3-2.6-.65v-4l2.6-.65-1.38-2.3 2.83-2.83 2.3 1.38.65-2.6h4l.65 2.6 2.3-1.38 2.83 2.83-1.38 2.3 2.6.65z" fill="#ff7956"/><path d="m27.5 45a1.5 1.5 0 0 1 0 3h-13a1.5 1.5 0 0 1 0-3z" fill="#ff7956"/><path d="m27.5 48a1.5 1.5 0 0 1 0 3h-13a1.5 1.5 0 0 1 0-3z" fill="#57a4ff"/><path d="m27.5 51a1.5 1.5 0 0 1 0 3h-13a1.5 1.5 0 0 1 0-3z" fill="#ff7956"/><path d="m27 54v1a6 6 0 0 1 -12 0v-1z" fill="#e0e0e2"/><circle cx="21" cy="21" fill="#57a4ff" r="3"/><path d="m40 21c0-.338-.033-.667-.051-1h6.051v2.184a3 3 0 1 0 2 0v-3.184a1 1 0 0 0 -1-1h-7.261a18.8 18.8 0 0 0 -1.092-4h15.353v2.184a3 3 0 1 0 2 0v-3.184a1 1 0 0 0 -1-1h-17.273a19.025 19.025 0 0 0 -1.984-2.963l7.557-5.037h14.7v2.184a3 3 0 1 0 2 0v-3.184a1 1 0 0 0 -1-1h-16a1.006 1.006 0 0 0 -.555.168l-8.056 5.368a18.994 18.994 0 1 0 -20.389 31.127v5.388a2.5 2.5 0 0 0 -2 2.449 2.471 2.471 0 0 0 .513 1.5 2.449 2.449 0 0 0 0 3 2.471 2.471 0 0 0 -.513 1.5 2.5 2.5 0 0 0 2 2.449v.051a7 7 0 0 0 14 0v-.051a2.5 2.5 0 0 0 2-2.449 2.471 2.471 0 0 0 -.513-1.5 2.449 2.449 0 0 0 0-3 2.471 2.471 0 0 0 .513-1.5 2.5 2.5 0 0 0 -2-2.449v-5.388a19.029 19.029 0 0 0 12-17.663zm7 5a1 1 0 1 1 1-1 1 1 0 0 1 -1 1zm8-6a1 1 0 1 1 1-1 1 1 0 0 1 -1 1zm4-10a1 1 0 1 1 1-1 1 1 0 0 1 -1 1zm-55 11a17 17 0 1 1 22.667 16.027 1.04 1.04 0 0 0 -.667.973v6h-4v-13h1a1 1 0 0 0 .97-.757l.323-1.293 1.143.686a1 1 0 0 0 1.221-.151l2.828-2.828a1 1 0 0 0 .151-1.222l-.686-1.142 1.292-.323a1 1 0 0 0 .758-.97v-4a1 1 0 0 0 -.758-.97l-1.292-.323.686-1.142a1 1 0 0 0 -.151-1.222l-2.828-2.828a1 1 0 0 0 -1.221-.151l-1.143.686-.323-1.293a1 1 0 0 0 -.97-.757h-4a1 1 0 0 0 -.97.757l-.323 1.293-1.143-.686a1 1 0 0 0 -1.221.151l-2.828 2.828a1 1 0 0 0 -.151 1.222l.686 1.142-1.292.323a1 1 0 0 0 -.758.97v4a1 1 0 0 0 .758.97l1.292.323-.686 1.142a1 1 0 0 0 .151 1.222l2.828 2.828a1 1 0 0 0 1.221.151l1.143-.686.323 1.293a1 1 0 0 0 .97.757h1v13h-4v-6.03a1 1 0 0 0 -.667-.943 17.025 17.025 0 0 1 -11.333-16.027zm11.525 2.268a1 1 0 0 0 -.681-.588l-1.844-.461v-2.438l1.844-.461a1 1 0 0 0 .615-1.485l-.979-1.635 1.72-1.719 1.63.978a1 1 0 0 0 1.484-.615l.467-1.844h2.438l.462 1.844a1 1 0 0 0 1.484.615l1.63-.978 1.725 1.719-.979 1.63a1 1 0 0 0 .615 1.485l1.844.466v2.438l-1.844.461a1 1 0 0 0 -.615 1.485l.979 1.63-1.72 1.724-1.63-.978a1 1 0 0 0 -1.484.615l-.467 1.844h-2.438l-.462-1.844a1 1 0 0 0 -1.484-.615l-1.63.978-1.725-1.719.979-1.63a1 1 0 0 0 .066-.902zm-1.025 22.732h13a.5.5 0 0 1 0 1h-13a.5.5 0 0 1 0-1zm13.5 3.5a.5.5 0 0 1 -.5.5h-13a.5.5 0 0 1 0-1h13a.5.5 0 0 1 .5.5zm-7 10.5a5.006 5.006 0 0 1 -5-5h10a5.006 5.006 0 0 1 -5 5zm6.5-7h-13a.5.5 0 0 1 0-1h13a.5.5 0 0 1 0 1z"/><path d="m54.92 45h1.08a2 2 0 0 0 2-2v-1a2 2 0 0 0 -1.624-1.962l1.331-1.331a1 1 0 0 0 .293-.707v-1a7.008 7.008 0 0 0 -7-7h-6a7.008 7.008 0 0 0 -7 7v1a1 1 0 0 0 .293.707l1.331 1.331a2 2 0 0 0 -1.624 1.962v1a2 2 0 0 0 2 2h1.08a6.991 6.991 0 0 0 13.84 0zm1.08-2h-1v-1h1zm-16-6a5.006 5.006 0 0 1 5-5h6a5.006 5.006 0 0 1 5 5v.586l-1 1v-.586a1 1 0 0 0 -.758-.97l-8-2a1 1 0 0 0 -.689.075l-4 2a1 1 0 0 0 -.553.895v.586l-1-1zm0 5h1v1h-1zm8 7a5.006 5.006 0 0 1 -5-5v-5.382l3.116-1.558 6.884 1.721v5.219a5.006 5.006 0 0 1 -5 5z"/><path d="m21 25a4 4 0 1 0 -4-4 4 4 0 0 0 4 4zm0-6a2 2 0 1 1 -2 2 2 2 0 0 1 2-2z"/><path d="m55 51h-14a7.008 7.008 0 0 0 -7 7v3a1 1 0 0 0 1 1h26a1 1 0 0 0 1-1v-3a7.008 7.008 0 0 0 -7-7zm-4.357 2-.621 2h-4.044l-.621-2zm9.357 7h-24v-2a5.006 5.006 0 0 1 5-5h2.263l1.023 3.3a1 1 0 0 0 .955.7h5.518a1 1 0 0 0 .955-.7l1.023-3.3h2.263a5.006 5.006 0 0 1 5 5z"/></svg>