<?xml version="1.0" encoding="iso-8859-1"?>
<!-- Generator: Adobe Illustrator 19.0.0, SVG Export Plug-In . SVG Version: 6.00 Build 0)  -->
<svg version="1.1" id="Capa_1" xmlns="http://www.w3.org/2000/svg" xmlns:xlink="http://www.w3.org/1999/xlink" x="0px" y="0px"
	 viewBox="0 0 512 512" style="enable-background:new 0 0 512 512;" xml:space="preserve">
<path id="SVGCleanerId_0" d="M460.228,338.483c0-0.222,0-0.452,0-0.674l0,0c-0.085-0.853-0.213-1.783-0.324-2.671l-0.154-1.084
	c-0.324-2.697-0.717-5.376-1.22-8.038c-0.282-1.434-0.563-2.859-0.853-4.267c-0.546-2.475-1.186-4.915-1.877-7.322l-0.239-0.853
	c-0.316-1.109-0.64-2.219-0.99-3.294c-0.853-2.56-1.775-5.06-2.765-7.552l-0.41-1.092c-0.282-0.742-0.563-1.485-0.853-2.244
	c-1.468-3.413-3.063-6.724-4.821-9.993c-0.435-0.802-0.905-1.579-1.365-2.355l-0.631-1.05c-1.203-2.099-2.441-4.181-3.78-6.229
	c-0.853-1.246-1.707-2.449-2.918-4.181c-1.212-1.732-2.381-3.277-3.627-4.847c-1.246-1.57-2.295-2.859-3.49-4.267
	c-1.195-1.408-2.5-2.799-4.096-4.506c-1.203-1.289-2.406-2.56-3.661-3.797c-1.041-0.998-2.116-1.963-3.191-2.918l-0.828-0.597
	c-2.918-2.62-5.956-5.094-9.105-7.441l-0.973-0.734c-0.777-0.606-1.57-1.203-2.372-1.758c-1.707-1.161-3.413-2.236-5.12-3.302
	l-1.152-0.725c-1.033-0.64-2.074-1.28-3.115-1.877c-1.954-1.118-3.942-2.167-5.973-3.191c-1.28-0.64-2.56-1.271-3.891-1.869
	c-2.091-0.973-4.198-1.911-6.34-2.765c-0.93-0.367-1.877-0.708-2.825-1.041l-1.562-0.563l-0.239-0.085v-74.752l15.539-69.922
	c23.211-3.84,38.912-25.771,35.072-48.981C422.673,15.061,404.864-0.026,384,0H162.133c-4.71,0-8.533,3.823-8.533,8.533v8.533H128
	c-4.71,0-8.533,3.823-8.533,8.533v34.133c0,4.71,3.823,8.533,8.533,8.533h25.6V76.8c0,4.71,3.823,8.533,8.533,8.533H179.2v40.653
	l-24.704,49.399c-2.108,4.215-0.401,9.344,3.823,11.452c1.178,0.589,2.492,0.896,3.814,0.896h34.133
	c3.234,0,6.195-1.826,7.637-4.719l25.6-51.2c0.589-1.186,0.896-2.492,0.896-3.814V85.333h17.963L256,154.095v75.204l-0.853,0.299
	l-0.964,0.35c-0.947,0.333-1.894,0.674-2.816,1.041c-2.15,0.853-4.267,1.792-6.357,2.765c-1.306,0.597-2.56,1.229-3.891,1.869
	c-2.022,1.024-4.011,2.074-5.973,3.183c-1.067,0.606-2.099,1.246-3.132,1.886l-1.152,0.725c-1.707,1.067-3.465,2.142-5.12,3.285
	c-0.853,0.572-1.613,1.169-2.389,1.775l-0.964,0.725c-3.157,2.347-6.187,4.821-9.097,7.433l-0.734,0.649
	c-1.075,0.956-2.15,1.92-3.191,2.927c-1.254,1.229-2.458,2.5-3.968,4.113c-1.28,1.365-2.56,2.748-3.789,4.173
	c-1.229,1.425-2.364,2.816-3.473,4.267c-1.263,1.596-2.458,3.217-3.942,5.282c-0.896,1.246-1.783,2.492-2.637,3.797
	c-1.314,2.014-2.56,4.096-3.746,6.17l-0.649,1.075c-0.461,0.777-0.93,1.553-1.382,2.381c-1.707,3.243-3.337,6.571-4.813,9.993
	c-0.307,0.734-0.589,1.476-0.853,2.219l-0.418,1.101c-0.981,2.483-1.92,4.983-2.748,7.526c-0.358,1.092-0.683,2.202-0.998,3.311
	l-0.239,0.853c-0.691,2.406-1.331,4.847-1.877,7.305c-0.316,1.417-0.614,2.833-0.896,4.267c-0.503,2.637-0.896,5.316-1.22,7.979
	l-0.154,1.118c-0.111,0.853-0.239,1.775-0.324,2.705c0,0.222,0,0.452,0,0.683c-0.35,0.896-0.538,1.843-0.572,2.807v128
	c0.026,23.552,19.115,42.641,42.667,42.667h204.8c23.552-0.026,42.641-19.115,42.667-42.667v-128
	C460.774,340.361,460.578,339.396,460.228,338.483z M379.264,249.242c1.135,0.521,2.27,1.067,3.413,1.621
	c1.707,0.853,3.473,1.792,5.18,2.773c0.853,0.495,1.707,1.024,2.56,1.553l1.195,0.742c1.476,0.913,2.944,1.818,4.386,2.816
	c0.589,0.401,1.143,0.853,1.707,1.263l1.161,0.853c2.748,2.031,5.367,4.181,7.919,6.468l0.777,0.691
	c0.853,0.785,1.766,1.562,2.611,2.381c1.067,1.033,2.082,2.125,3.413,3.567c1.118,1.195,2.227,2.381,3.294,3.627
	c1.067,1.246,2.039,2.415,3.029,3.686c0.99,1.271,2.125,2.782,3.524,4.745c0.734,1.024,1.476,2.039,2.142,3.063
	c1.152,1.766,2.219,3.575,3.294,5.427l0.785,1.314c0.333,0.555,0.666,1.101,0.956,1.638c1.51,2.807,2.893,5.692,4.147,8.619
	l1.118,2.884c0.853,2.159,1.707,4.326,2.398,6.562c0.299,0.853,0.555,1.809,0.853,2.722l0.239,0.853
	c0.614,2.082,1.143,4.19,1.63,6.332c0.282,1.237,0.546,2.466,0.785,3.695c0.239,1.229,0.367,2.415,0.546,3.618H341.333V196.267
	H358.4v39.142c0,3.772,2.475,7.1,6.093,8.175c1.835,0.555,3.618,1.203,5.973,2.057l1.058,0.384c0.751,0.265,1.493,0.529,2.227,0.853
	C375.629,247.586,377.446,248.405,379.264,249.242z M307.2,349.867h17.067V435.2H307.2V349.867z M307.2,332.8V196.267h17.067V332.8
	H307.2z M273.067,162.133H358.4V179.2h-85.333V162.133z M136.533,51.2V34.133H153.6V51.2H136.533z M170.667,59.733V17.067H384
	c14.14,0,25.6,11.46,25.6,25.6s-11.46,25.6-25.6,25.6H170.667V59.733z M213.333,125.986l-22.34,44.681H175.94l19.473-38.852
	c0.572-1.186,0.87-2.492,0.853-3.814V85.333h17.067V125.986z M373.359,85.333l-13.252,59.733h-87.893l-6.647-59.733H373.359z
	 M190.515,325.47c0.486-2.125,1.015-4.267,1.621-6.306l0.247-0.853c0.265-0.913,0.521-1.826,0.853-2.739
	c0.717-2.219,1.536-4.386,2.389-6.528l1.109-2.876c1.263-2.953,2.645-5.837,4.139-8.61c0.307-0.572,0.64-1.118,0.973-1.707
	l0.802-1.331c1.05-1.826,2.116-3.644,3.26-5.385c0.717-1.084,1.476-2.142,2.56-3.627c1.084-1.485,2.048-2.833,3.157-4.224
	c0.981-1.254,1.98-2.475,3.021-3.686s2.159-2.415,3.618-3.968c1.015-1.084,2.031-2.176,3.098-3.2
	c0.853-0.853,1.707-1.604,2.611-2.389l0.794-0.708c2.56-2.27,5.12-4.42,7.91-6.46l1.152-0.853c0.563-0.427,1.118-0.853,1.707-1.28
	c1.425-0.981,2.884-1.886,4.369-2.799l1.195-0.742c0.853-0.529,1.707-1.058,2.56-1.562c1.707-0.973,3.413-1.886,5.12-2.765
	c1.118-0.555,2.253-1.101,3.413-1.621c1.826-0.853,3.644-1.655,5.521-2.398c0.725-0.29,1.468-0.555,2.219-0.853l1.638-0.589
	c1.783-0.649,3.567-1.297,5.402-1.852c3.61-1.075,6.084-4.386,6.093-8.149v-39.142h17.067V332.8H189.184
	c0.179-1.203,0.324-2.415,0.546-3.593C189.952,328.03,190.234,326.724,190.515,325.47z M443.733,469.333
	c0,14.14-11.46,25.6-25.6,25.6h-204.8c-14.14,0-25.6-11.46-25.6-25.6V349.867h102.4v93.867c0,4.71,3.823,8.533,8.533,8.533H332.8
	c4.71,0,8.533-3.823,8.533-8.533v-93.867h102.4V469.333z"/>
<g>
	<rect id="SVGCleanerId_1" x="85.333" y="34.133" width="17.067" height="17.067"/>
</g>
<rect x="51.2" y="8.533" width="17.067" height="17.067"/>
<g>
	<rect id="SVGCleanerId_2" x="51.2" y="59.733" width="17.067" height="17.067"/>
</g>
<path style="fill:#B3E4E8;" d="M366.933,235.409V153.6h-102.4v81.809c-50.62,15.095-85.316,61.636-85.333,114.458v119.467
	c0,18.85,15.283,34.133,34.133,34.133h204.8c18.85,0,34.133-15.283,34.133-34.133V349.867
	C452.25,297.045,417.553,250.505,366.933,235.409z"/>
<path style="fill:#6FBBC6;" d="M179.2,341.333h273.067l0,0v128c0,18.85-15.283,34.133-34.133,34.133h-204.8
	c-18.85,0-34.133-15.283-34.133-34.133V341.333L179.2,341.333z"/>
<rect x="298.667" y="179.2" style="fill:#69B0BB;" width="34.133" height="264.533"/>
<rect x="298.667" y="341.333" style="fill:#3B869E;" width="34.133" height="102.4"/>
<g>
	<g>
		<rect id="SVGCleanerId_1_1_" x="85.333" y="34.133" style="fill:#6CBAE5;" width="17.067" height="17.067"/>
	</g>
	<rect x="51.2" y="8.533" style="fill:#6CBAE5;" width="17.067" height="17.067"/>
	<g>
		<rect id="SVGCleanerId_2_1_" x="51.2" y="59.733" style="fill:#6CBAE5;" width="17.067" height="17.067"/>
	</g>
</g>
<rect x="128" y="25.6" style="fill:#69B0BB;" width="42.667" height="34.133"/>
<rect x="264.533" y="145.067" style="fill:#EAEAE8;" width="102.4" height="42.667"/>
<polygon style="fill:#69B0BB;" points="187.733,68.267 187.733,128 162.133,179.2 196.267,179.2 221.867,128 221.867,68.267 "/>
<polygon style="fill:#CDCDCD;" points="366.933,153.6 264.533,153.6 256,76.8 256,68.267 384,68.267 384,76.8 "/>
<path style="fill:#EAEAE8;" d="M162.133,8.533H384c18.85,0,34.133,15.283,34.133,34.133l0,0c0,18.85-15.283,34.133-34.133,34.133
	H162.133l0,0V8.533L162.133,8.533z"/>
<rect x="187.733" y="76.8" style="fill:#3B869E;" width="34.133" height="25.6"/>
<polygon style="fill:#B9B9B9;" points="378.308,102.4 384,76.8 256,76.8 258.842,102.4 "/>
<g>
	<path id="SVGCleanerId_0_1_" d="M460.228,338.483c0-0.222,0-0.452,0-0.674l0,0c-0.085-0.853-0.213-1.783-0.324-2.671l-0.154-1.084
		c-0.324-2.697-0.717-5.376-1.22-8.038c-0.282-1.434-0.563-2.859-0.853-4.267c-0.546-2.475-1.186-4.915-1.877-7.322l-0.239-0.853
		c-0.316-1.109-0.64-2.219-0.99-3.294c-0.853-2.56-1.775-5.06-2.765-7.552l-0.41-1.092c-0.282-0.742-0.563-1.485-0.853-2.244
		c-1.468-3.413-3.063-6.724-4.821-9.993c-0.435-0.802-0.905-1.579-1.365-2.355l-0.631-1.05c-1.203-2.099-2.441-4.181-3.78-6.229
		c-0.853-1.246-1.707-2.449-2.918-4.181c-1.212-1.732-2.381-3.277-3.627-4.847c-1.246-1.57-2.295-2.859-3.49-4.267
		c-1.195-1.408-2.5-2.799-4.096-4.506c-1.203-1.289-2.406-2.56-3.661-3.797c-1.041-0.998-2.116-1.963-3.191-2.918l-0.828-0.597
		c-2.918-2.62-5.956-5.094-9.105-7.441l-0.973-0.734c-0.777-0.606-1.57-1.203-2.372-1.758c-1.707-1.161-3.413-2.236-5.12-3.302
		l-1.152-0.725c-1.033-0.64-2.074-1.28-3.115-1.877c-1.954-1.118-3.942-2.167-5.973-3.191c-1.28-0.64-2.56-1.271-3.891-1.869
		c-2.091-0.973-4.198-1.911-6.34-2.765c-0.93-0.367-1.877-0.708-2.825-1.041l-1.562-0.563l-0.239-0.085v-74.752l15.539-69.922
		c23.211-3.84,38.912-25.771,35.072-48.981C422.673,15.061,404.864-0.026,384,0H162.133c-4.71,0-8.533,3.823-8.533,8.533v8.533H128
		c-4.71,0-8.533,3.823-8.533,8.533v34.133c0,4.71,3.823,8.533,8.533,8.533h25.6V76.8c0,4.71,3.823,8.533,8.533,8.533H179.2v40.653
		l-24.704,49.399c-2.108,4.215-0.401,9.344,3.823,11.452c1.178,0.589,2.492,0.896,3.814,0.896h34.133
		c3.234,0,6.195-1.826,7.637-4.719l25.6-51.2c0.589-1.186,0.896-2.492,0.896-3.814V85.333h17.963L256,154.095v75.204l-0.853,0.299
		l-0.964,0.35c-0.947,0.333-1.894,0.674-2.816,1.041c-2.15,0.853-4.267,1.792-6.357,2.765c-1.306,0.597-2.56,1.229-3.891,1.869
		c-2.022,1.024-4.011,2.074-5.973,3.183c-1.067,0.606-2.099,1.246-3.132,1.886l-1.152,0.725c-1.707,1.067-3.465,2.142-5.12,3.285
		c-0.853,0.572-1.613,1.169-2.389,1.775l-0.964,0.725c-3.157,2.347-6.187,4.821-9.097,7.433l-0.734,0.649
		c-1.075,0.956-2.15,1.92-3.191,2.927c-1.254,1.229-2.458,2.5-3.968,4.113c-1.28,1.365-2.56,2.748-3.789,4.173
		c-1.229,1.425-2.364,2.816-3.473,4.267c-1.263,1.596-2.458,3.217-3.942,5.282c-0.896,1.246-1.783,2.492-2.637,3.797
		c-1.314,2.014-2.56,4.096-3.746,6.17l-0.649,1.075c-0.461,0.777-0.93,1.553-1.382,2.381c-1.707,3.243-3.337,6.571-4.813,9.993
		c-0.307,0.734-0.589,1.476-0.853,2.219l-0.418,1.101c-0.981,2.483-1.92,4.983-2.748,7.526c-0.358,1.092-0.683,2.202-0.998,3.311
		l-0.239,0.853c-0.691,2.406-1.331,4.847-1.877,7.305c-0.316,1.417-0.614,2.833-0.896,4.267c-0.503,2.637-0.896,5.316-1.22,7.979
		l-0.154,1.118c-0.111,0.853-0.239,1.775-0.324,2.705c0,0.222,0,0.452,0,0.683c-0.35,0.896-0.538,1.843-0.572,2.807v128
		c0.026,23.552,19.115,42.641,42.667,42.667h204.8c23.552-0.026,42.641-19.115,42.667-42.667v-128
		C460.774,340.361,460.578,339.396,460.228,338.483z M379.264,249.242c1.135,0.521,2.27,1.067,3.413,1.621
		c1.707,0.853,3.473,1.792,5.18,2.773c0.853,0.495,1.707,1.024,2.56,1.553l1.195,0.742c1.476,0.913,2.944,1.818,4.386,2.816
		c0.589,0.401,1.143,0.853,1.707,1.263l1.161,0.853c2.748,2.031,5.367,4.181,7.919,6.468l0.777,0.691
		c0.853,0.785,1.766,1.562,2.611,2.381c1.067,1.033,2.082,2.125,3.413,3.567c1.118,1.195,2.227,2.381,3.294,3.627
		c1.067,1.246,2.039,2.415,3.029,3.686c0.99,1.271,2.125,2.782,3.524,4.745c0.734,1.024,1.476,2.039,2.142,3.063
		c1.152,1.766,2.219,3.575,3.294,5.427l0.785,1.314c0.333,0.555,0.666,1.101,0.956,1.638c1.51,2.807,2.893,5.692,4.147,8.619
		l1.118,2.884c0.853,2.159,1.707,4.326,2.398,6.562c0.299,0.853,0.555,1.809,0.853,2.722l0.239,0.853
		c0.614,2.082,1.143,4.19,1.63,6.332c0.282,1.237,0.546,2.466,0.785,3.695c0.239,1.229,0.367,2.415,0.546,3.618H341.333V196.267
		H358.4v39.142c0,3.772,2.475,7.1,6.093,8.175c1.835,0.555,3.618,1.203,5.973,2.057l1.058,0.384
		c0.751,0.265,1.493,0.529,2.227,0.853C375.629,247.586,377.446,248.405,379.264,249.242z M307.2,349.867h17.067V435.2H307.2
		V349.867z M307.2,332.8V196.267h17.067V332.8H307.2z M273.067,162.133H358.4V179.2h-85.333V162.133z M136.533,51.2V34.133H153.6
		V51.2H136.533z M170.667,59.733V17.067H384c14.14,0,25.6,11.46,25.6,25.6s-11.46,25.6-25.6,25.6H170.667V59.733z M213.333,125.986
		l-22.34,44.681H175.94l19.473-38.852c0.572-1.186,0.87-2.492,0.853-3.814V85.333h17.067V125.986z M373.359,85.333l-13.252,59.733
		h-87.893l-6.647-59.733H373.359z M190.515,325.47c0.486-2.125,1.015-4.267,1.621-6.306l0.247-0.853
		c0.265-0.913,0.521-1.826,0.853-2.739c0.717-2.219,1.536-4.386,2.389-6.528l1.109-2.876c1.263-2.953,2.645-5.837,4.139-8.61
		c0.307-0.572,0.64-1.118,0.973-1.707l0.802-1.331c1.05-1.826,2.116-3.644,3.26-5.385c0.717-1.084,1.476-2.142,2.56-3.627
		c1.084-1.485,2.048-2.833,3.157-4.224c0.981-1.254,1.98-2.475,3.021-3.686s2.159-2.415,3.618-3.968
		c1.015-1.084,2.031-2.176,3.098-3.2c0.853-0.853,1.707-1.604,2.611-2.389l0.794-0.708c2.56-2.27,5.12-4.42,7.91-6.46l1.152-0.853
		c0.563-0.427,1.118-0.853,1.707-1.28c1.425-0.981,2.884-1.886,4.369-2.799l1.195-0.742c0.853-0.529,1.707-1.058,2.56-1.562
		c1.707-0.973,3.413-1.886,5.12-2.765c1.118-0.555,2.253-1.101,3.413-1.621c1.826-0.853,3.644-1.655,5.521-2.398
		c0.725-0.29,1.468-0.555,2.219-0.853l1.638-0.589c1.783-0.649,3.567-1.297,5.402-1.852c3.61-1.075,6.084-4.386,6.093-8.149v-39.142
		h17.067V332.8H189.184c0.179-1.203,0.324-2.415,0.546-3.593C189.952,328.03,190.234,326.724,190.515,325.47z M443.733,469.333
		c0,14.14-11.46,25.6-25.6,25.6h-204.8c-14.14,0-25.6-11.46-25.6-25.6V349.867h102.4v93.867c0,4.71,3.823,8.533,8.533,8.533H332.8
		c4.71,0,8.533-3.823,8.533-8.533v-93.867h102.4V469.333z"/>
</g>
<g>
	<rect id="SVGCleanerId_1_2_" x="85.333" y="34.133" width="17.067" height="17.067"/>
</g>
<rect x="51.2" y="8.533" width="17.067" height="17.067"/>
<g>
	<rect id="SVGCleanerId_2_2_" x="51.2" y="59.733" width="17.067" height="17.067"/>
</g>
<g>
</g>
<g>
</g>
<g>
</g>
<g>
</g>
<g>
</g>
<g>
</g>
<g>
</g>
<g>
</g>
<g>
</g>
<g>
</g>
<g>
</g>
<g>
</g>
<g>
</g>
<g>
</g>
<g>
</g>
</svg>
