<svg xmlns="http://www.w3.org/2000/svg" viewBox="0 0 526.83 153.09"><defs><style>.cls-1{fill:#fff;}.cls-2{fill:none;}.cls-2,.cls-3{stroke:#000;stroke-linecap:round;stroke-linejoin:round;stroke-width:5px;}</style></defs><title>negro fondo blanco</title><g id="Capa_2" data-name="Capa 2"><g id="Capa_1-2" data-name="Capa 1"><rect class="cls-1" width="526.83" height="153.09"/><polygon class="cls-2" points="116.42 54.51 79.16 76.55 41.88 54.51 79.16 32.48 116.42 54.51"/><polygon class="cls-3" points="75.67 82.64 75.67 126.99 38.4 104.96 38.4 60.61 75.67 82.64"/><polygon class="cls-2" points="120.04 104.96 82.77 126.99 82.77 82.64 120.04 60.61 120.04 104.96"/><polyline class="cls-2" points="79.16 32.48 79.16 76.55 41.88 54.51 116.42 54.51"/><path d="M157,89.17l-5.93,18.16h-7.18l-3.8-31.42a3.46,3.46,0,0,1-2.22-1,3,3,0,0,1-.75-2.1,3.15,3.15,0,0,1,1-2.41,4.86,4.86,0,0,1,3.3-.9l8.52,0a5,5,0,0,1,3.29.87,3.24,3.24,0,0,1,0,4.64,4.91,4.91,0,0,1-3.29.89h-3.34l2.12,17.88,5-14.89h6.65l5,14.89,2.13-17.88h-3.34a4.92,4.92,0,0,1-3.3-.89,3.25,3.25,0,0,1,0-4.65,4.92,4.92,0,0,1,3.3-.89l8.48,0a5,5,0,0,1,3.3.87,3,3,0,0,1,1,2.31,3,3,0,0,1-.78,2.09,3.73,3.73,0,0,1-2.25,1.13l-3.68,31.42h-7Z"/><path d="M188.77,66.86V80.5a17.2,17.2,0,0,1,4-1.77,15.3,15.3,0,0,1,4.13-.57,14.64,14.64,0,0,1,5.9,1.12,10.06,10.06,0,0,1,4.29,3.54,10.31,10.31,0,0,1,1.7,6.1v12a7,7,0,0,1,3.19.46,3.09,3.09,0,0,1,1.5,2.75,3,3,0,0,1-1,2.29,4.79,4.79,0,0,1-3.28.89H202a4.76,4.76,0,0,1-3.26-.89,3,3,0,0,1-1-2.32,3.07,3.07,0,0,1,1.49-2.72,6.61,6.61,0,0,1,3.19-.46V89.36a4.47,4.47,0,0,0-1.13-3.47,6.25,6.25,0,0,0-4.34-1.34,8.29,8.29,0,0,0-3.76.83A20.17,20.17,0,0,0,188.77,89v12a6.9,6.9,0,0,1,3.18.46,3.08,3.08,0,0,1,1.53,2.75,3,3,0,0,1-1,2.29,4.85,4.85,0,0,1-3.29.89h-7.28a4.83,4.83,0,0,1-3.29-.89,3,3,0,0,1-1-2.32,3.06,3.06,0,0,1,1.53-2.72,6.48,6.48,0,0,1,3.18-.46V73.25h-1.09a4.87,4.87,0,0,1-3.29-.88A3,3,0,0,1,177,70a2.92,2.92,0,0,1,1-2.29,4.82,4.82,0,0,1,3.29-.89Z"/><path d="M236.89,79v21.94h7.68a4.82,4.82,0,0,1,3.29.89,3,3,0,0,1,1,2.32,2.92,2.92,0,0,1-1,2.29,4.82,4.82,0,0,1-3.29.89H222.82a4.86,4.86,0,0,1-3.3-.89,3,3,0,0,1-1-2.32,3,3,0,0,1,1-2.29,4.86,4.86,0,0,1,3.3-.89h7.67V85.4h-5.15a4.86,4.86,0,0,1-3.27-.89,3.19,3.19,0,0,1,0-4.62,4.83,4.83,0,0,1,3.29-.89ZM236,66.86v6.77H228.4V66.86Z"/><path d="M263.34,85.4V98.22c0,1.37.28,2.28.85,2.72.87.68,2.43,1,4.68,1a19.91,19.91,0,0,0,9.05-2.09,6.09,6.09,0,0,1,2.49-.82,3,3,0,0,1,2.17.94,3.11,3.11,0,0,1,.92,2.28,2.79,2.79,0,0,1-1,2.15q-1.53,1.47-6,2.7a29.84,29.84,0,0,1-7.6,1.23c-4,0-7-.85-8.94-2.57a8,8,0,0,1-3-6.32V85.4h-2.31a4.92,4.92,0,0,1-3.3-.89,3,3,0,0,1-1-2.33,3,3,0,0,1,1-2.29,4.86,4.86,0,0,1,3.3-.89H257V73.22a4.83,4.83,0,0,1,.89-3.29,3,3,0,0,1,2.32-1,3,3,0,0,1,2.29,1,4.83,4.83,0,0,1,.89,3.29V79h11.83a4.82,4.82,0,0,1,3.29.89,3.19,3.19,0,0,1,0,4.62,4.87,4.87,0,0,1-3.29.89Z"/><path d="M320,96.41H293.79a8.15,8.15,0,0,0,3.54,4,13.31,13.31,0,0,0,6.88,1.53,39.9,39.9,0,0,0,9.46-1.53,16.12,16.12,0,0,1,3.37-.63,2.89,2.89,0,0,1,2.15.91,3.15,3.15,0,0,1,.88,2.28,2.81,2.81,0,0,1-.94,2.12q-1.25,1.16-6.09,2.2a43.73,43.73,0,0,1-9.3,1q-7.67,0-12.28-4.33a14.1,14.1,0,0,1-4.6-10.68,13.72,13.72,0,0,1,5-11,17.17,17.17,0,0,1,11.47-4.22,18.2,18.2,0,0,1,7.16,1.37,15.17,15.17,0,0,1,4.85,3A18.61,18.61,0,0,1,319,88.2a14.06,14.06,0,0,1,1,5.5ZM313,90a10,10,0,0,0-3.84-4.1,12.35,12.35,0,0,0-11.27,0A10.16,10.16,0,0,0,294,90Z"/><path d="M330,100.94v-25h-1a4.92,4.92,0,0,1-3.3-.89,3.25,3.25,0,0,1,0-4.65,4.92,4.92,0,0,1,3.3-.89h16a13.16,13.16,0,0,1,9.23,3.2,10,10,0,0,1,3.5,7.6,9.67,9.67,0,0,1-.81,3.93,10.52,10.52,0,0,1-2.47,3.4A13.22,13.22,0,0,1,359,91.84a10.11,10.11,0,0,1,1.52,5.48,9.59,9.59,0,0,1-1.1,4.52,7.44,7.44,0,0,1-2,2.53,13.09,13.09,0,0,1-3.9,2.14,17.39,17.39,0,0,1-5.78.82H329a4.86,4.86,0,0,1-3.3-.89,3,3,0,0,1-1-2.32,2.9,2.9,0,0,1,1-2.29,4.84,4.84,0,0,1,3.28-.89Zm6.4-15.73h7a10.07,10.07,0,0,0,6.28-1.91,3.85,3.85,0,0,0,1.68-3.18,3.7,3.7,0,0,0-1.59-3q-1.59-1.26-5.06-1.26h-8.33Zm0,15.73h11.05q3.9,0,5.49-1.16a2.88,2.88,0,0,0,1.22-2.49q0-1.94-2.4-3.81t-6.9-1.87h-8.46Z"/><path d="M397.5,93.7a13.85,13.85,0,0,1-2.05,7.13,14.36,14.36,0,0,1-6.08,5.49,18.46,18.46,0,0,1-16.81,0,14.5,14.5,0,0,1-6.08-5.48,13.76,13.76,0,0,1-2.1-7.24,15.43,15.43,0,0,1,8.23-13.35,17.35,17.35,0,0,1,8.31-2.12,17.58,17.58,0,0,1,8.41,2.16,14.86,14.86,0,0,1,6.11,5.84A15.24,15.24,0,0,1,397.5,93.7Zm-6.4,0a8.55,8.55,0,0,0-2.22-5.68,10.81,10.81,0,0,0-15.2-.72,8.65,8.65,0,0,0-2.9,6.43c0,2,1,3.86,2.94,5.6a11.29,11.29,0,0,0,14.44,0A7.51,7.51,0,0,0,391.1,93.73Z"/><path d="M423.51,92.6l9.71,8.34a3.83,3.83,0,0,1,2.62,1,3.06,3.06,0,0,1,.87,2.23,3,3,0,0,1-1,2.29,4.83,4.83,0,0,1-3.29.89h-7.28a4.85,4.85,0,0,1-3.29-.89,3.24,3.24,0,0,1-.28-4.33,3.51,3.51,0,0,1,1.92-1.17l-4.77-4.12-4.87,4.12a3.9,3.9,0,0,1,2.11,1.15,3.09,3.09,0,0,1,.63,2,3,3,0,0,1-1,2.35,4.79,4.79,0,0,1-3.28.89h-7.21a4.82,4.82,0,0,1-3.29-.89,3,3,0,0,1-1-2.32,3,3,0,0,1,.87-2.2,3.83,3.83,0,0,1,2.62-1l9.49-8.37-8.4-7.17a3.79,3.79,0,0,1-2.51-1,3.06,3.06,0,0,1-.86-2.2,2.92,2.92,0,0,1,1-2.29,4.82,4.82,0,0,1,3.29-.89h6a4.82,4.82,0,0,1,3.29.89,2.89,2.89,0,0,1,1,2.26,3.49,3.49,0,0,1-1.75,3l3.87,3.21,3.8-3.28a3.44,3.44,0,0,1-1.71-2.81,3.07,3.07,0,0,1,1-2.38,4.83,4.83,0,0,1,3.29-.89h5.93a4.86,4.86,0,0,1,3.3.89,3.2,3.2,0,0,1,.12,4.49,3.83,3.83,0,0,1-2.54,1Z"/><path d="M442.74,71.2V82.32h1.34a2.81,2.81,0,0,1,1.92.52,1.76,1.76,0,0,1,.57,1.36,1.71,1.71,0,0,1-.57,1.33,2.81,2.81,0,0,1-1.92.52h-4.89a2.81,2.81,0,0,1-1.92-.52,1.88,1.88,0,0,1,0-2.69,2.51,2.51,0,0,1,1.75-.52V67.73a2.32,2.32,0,0,1-1.49-.6,1.87,1.87,0,0,1,.08-2.63,2.81,2.81,0,0,1,1.92-.52l4.09,0,5.08,11.23,5-11.25,4.13,0a2.87,2.87,0,0,1,1.92.51,1.86,1.86,0,0,1,.06,2.62,2.31,2.31,0,0,1-1.47.6V82.32a2.51,2.51,0,0,1,1.75.53,1.78,1.78,0,0,1,.56,1.35,1.71,1.71,0,0,1-.57,1.33,2.81,2.81,0,0,1-1.92.52h-4.91a2.77,2.77,0,0,1-1.9-.52,1.85,1.85,0,0,1,0-2.69,2.77,2.77,0,0,1,1.9-.52h1.36V71.2l-4.27,9.61h-3.24Z"/><path d="M469.07,67.73V82.32h8.05V78.79a2.87,2.87,0,0,1,.51-1.92A1.76,1.76,0,0,1,479,76.3a1.73,1.73,0,0,1,1.34.57,2.86,2.86,0,0,1,.52,1.92v7.26H463.18a2.81,2.81,0,0,1-1.92-.52,1.87,1.87,0,0,1,0-2.69,2.81,2.81,0,0,1,1.92-.52h2.16V67.73h-2.16a2.81,2.81,0,0,1-1.92-.52,1.74,1.74,0,0,1-.57-1.35,1.76,1.76,0,0,1,.57-1.36,2.81,2.81,0,0,1,1.92-.52l8.08,0a2.9,2.9,0,0,1,1.92.51,1.88,1.88,0,0,1,0,2.7,2.85,2.85,0,0,1-1.92.52Z"/></g></g></svg>