<svg xmlns="http://www.w3.org/2000/svg" viewBox="0 0 444.95 99.51"><defs><style>.cls-1{fill:none;}.cls-1,.cls-2{stroke:#000;stroke-linecap:round;stroke-linejoin:round;stroke-width:5px;}</style></defs><title>negro</title><g id="Capa_2" data-name="Capa 2"><g id="Capa_1-2" data-name="Capa 1"><polygon class="cls-1" points="80.53 24.53 43.26 46.56 5.99 24.53 43.26 2.5 80.53 24.53"/><polygon class="cls-2" points="39.77 52.66 39.77 97.01 2.5 74.97 2.5 30.63 39.77 52.66"/><polygon class="cls-1" points="84.14 74.97 46.87 97.01 46.87 52.66 84.14 30.63 84.14 74.97"/><polyline class="cls-1" points="43.26 2.5 43.26 46.56 5.99 24.53 80.53 24.53"/><path d="M121.13,59.19,115.2,77.35H108l-3.8-31.42a3.51,3.51,0,0,1-2.22-1,3,3,0,0,1-.75-2.1,3.15,3.15,0,0,1,1-2.41,4.86,4.86,0,0,1,3.3-.9l8.52,0a5,5,0,0,1,3.29.87,3,3,0,0,1,1,2.31,3,3,0,0,1-1,2.33,4.89,4.89,0,0,1-3.29.89h-3.34l2.12,17.88,5-14.89h6.65l5,14.89,2.13-17.88h-3.34A4.92,4.92,0,0,1,125,45a3.25,3.25,0,0,1,0-4.65,4.86,4.86,0,0,1,3.3-.89l8.49,0a5,5,0,0,1,3.29.87,3,3,0,0,1,1,2.31,3,3,0,0,1-.78,2.09A3.73,3.73,0,0,1,138,45.93l-3.68,31.42h-7.05Z"/><path d="M152.87,36.88V50.51a17.16,17.16,0,0,1,4-1.76,15.33,15.33,0,0,1,4.14-.58,14.63,14.63,0,0,1,5.89,1.13,10.06,10.06,0,0,1,4.29,3.54,10.32,10.32,0,0,1,1.71,6.1V71a7,7,0,0,1,3.18.46,3.09,3.09,0,0,1,1.5,2.75,3,3,0,0,1-1,2.29,4.79,4.79,0,0,1-3.28.89h-7.3a4.76,4.76,0,0,1-3.26-.89,3,3,0,0,1-1-2.32,3.06,3.06,0,0,1,1.49-2.72,6.49,6.49,0,0,1,3.19-.46V59.38a4.47,4.47,0,0,0-1.13-3.47,6.22,6.22,0,0,0-4.33-1.34,8.3,8.3,0,0,0-3.77.83A20.17,20.17,0,0,0,152.87,59V71a6.9,6.9,0,0,1,3.18.46,3.08,3.08,0,0,1,1.53,2.75,3,3,0,0,1-1,2.29,4.83,4.83,0,0,1-3.29.89H146a4.83,4.83,0,0,1-3.29-.89,3,3,0,0,1-1-2.32,3.05,3.05,0,0,1,1.53-2.72,6.36,6.36,0,0,1,3.18-.46V43.27h-1.09a4.82,4.82,0,0,1-3.29-.89,3,3,0,0,1-1-2.32,2.92,2.92,0,0,1,1-2.29,4.82,4.82,0,0,1,3.29-.89Z"/><path d="M201,49V71h7.68a4.87,4.87,0,0,1,3.29.88,3,3,0,0,1,1,2.33,2.92,2.92,0,0,1-1,2.29,4.82,4.82,0,0,1-3.29.89H186.92a4.86,4.86,0,0,1-3.3-.89,3.21,3.21,0,0,1,0-4.62,4.92,4.92,0,0,1,3.3-.88h7.67V55.41h-5.14a4.84,4.84,0,0,1-3.28-.89,3.18,3.18,0,0,1,0-4.61,4.85,4.85,0,0,1,3.3-.89Zm-.87-12.14v6.77H192.5V36.88Z"/><path d="M227.44,55.41V68.24a3.38,3.38,0,0,0,.85,2.72c.87.68,2.43,1,4.68,1a19.79,19.79,0,0,0,9.05-2.1,6,6,0,0,1,2.5-.81,2.9,2.9,0,0,1,2.16.94,3.1,3.1,0,0,1,.93,2.28,2.82,2.82,0,0,1-1,2.15c-1,1-3,1.88-6,2.7a29.84,29.84,0,0,1-7.6,1.23q-6,0-8.94-2.57a8,8,0,0,1-3-6.32V55.41h-2.31a4.82,4.82,0,0,1-3.29-.89,3,3,0,0,1-1-2.32,2.92,2.92,0,0,1,1-2.29,4.82,4.82,0,0,1,3.29-.89h2.31V43.24a4.83,4.83,0,0,1,.89-3.29,3,3,0,0,1,2.32-1,3,3,0,0,1,2.29,1,4.83,4.83,0,0,1,.89,3.29V49h11.83a4.82,4.82,0,0,1,3.29.89,3,3,0,0,1,1,2.32,2.92,2.92,0,0,1-1,2.29,4.82,4.82,0,0,1-3.29.89Z"/><path d="M284.13,66.43H257.89a8.19,8.19,0,0,0,3.54,4A13.31,13.31,0,0,0,268.31,72a39.82,39.82,0,0,0,9.46-1.53,16.12,16.12,0,0,1,3.37-.63,2.85,2.85,0,0,1,2.15.91,3.15,3.15,0,0,1,.88,2.27,2.83,2.83,0,0,1-.94,2.13q-1.25,1.15-6.09,2.2a44.39,44.39,0,0,1-9.3,1q-7.66,0-12.28-4.33A14.1,14.1,0,0,1,251,63.37a13.72,13.72,0,0,1,5-11,17.19,17.19,0,0,1,11.47-4.23,18.21,18.21,0,0,1,7.16,1.38,15.17,15.17,0,0,1,4.85,3,18.81,18.81,0,0,1,3.72,5.71,14.15,14.15,0,0,1,1,5.49ZM277.05,60a10,10,0,0,0-3.84-4.1,12.33,12.33,0,0,0-11.26,0,10,10,0,0,0-3.87,4.1Z"/><path d="M294.07,71v-25h-1a4.92,4.92,0,0,1-3.3-.89,3.25,3.25,0,0,1,0-4.65,4.86,4.86,0,0,1,3.3-.89h16a13.09,13.09,0,0,1,9.23,3.2,10,10,0,0,1,3.5,7.6,9.67,9.67,0,0,1-.81,3.93,10.37,10.37,0,0,1-2.47,3.4,13.22,13.22,0,0,1,4.54,4.23,10.11,10.11,0,0,1,1.52,5.48,9.59,9.59,0,0,1-1.1,4.52,7.54,7.54,0,0,1-2,2.53,13.19,13.19,0,0,1-3.9,2.14,17.39,17.39,0,0,1-5.78.82H293.08a4.86,4.86,0,0,1-3.3-.89,3,3,0,0,1-1-2.32,2.94,2.94,0,0,1,1-2.3,4.9,4.9,0,0,1,3.28-.88Zm6.4-15.73h7a10.07,10.07,0,0,0,6.28-1.91,3.85,3.85,0,0,0,1.68-3.18,3.7,3.7,0,0,0-1.59-3q-1.59-1.26-5.06-1.26h-8.33Zm0,15.73h11q3.9,0,5.49-1.16a2.89,2.89,0,0,0,1.22-2.5c0-1.29-.8-2.55-2.4-3.8s-3.9-1.88-6.9-1.88h-8.46Z"/><path d="M361.6,63.71a13.86,13.86,0,0,1-2.05,7.14,14.36,14.36,0,0,1-6.08,5.49,18.46,18.46,0,0,1-16.81,0,14.5,14.5,0,0,1-6.08-5.48,13.75,13.75,0,0,1-2.09-7.24,15.39,15.39,0,0,1,8.22-13.35A17.37,17.37,0,0,1,345,48.17a17.65,17.65,0,0,1,8.41,2.17,14.9,14.9,0,0,1,6.1,5.84A15.23,15.23,0,0,1,361.6,63.71Zm-6.4,0A8.53,8.53,0,0,0,353,58.07a10.81,10.81,0,0,0-15.2-.72,8.65,8.65,0,0,0-2.9,6.43q0,3,2.94,5.6a11.31,11.31,0,0,0,14.45,0A7.55,7.55,0,0,0,355.2,63.75Z"/><path d="M387.61,62.62,397.32,71a3.83,3.83,0,0,1,2.62,1,3.06,3.06,0,0,1,.87,2.23,2.92,2.92,0,0,1-1,2.29,4.83,4.83,0,0,1-3.29.89h-7.27a4.86,4.86,0,0,1-3.3-.89,3.24,3.24,0,0,1-.28-4.33A3.45,3.45,0,0,1,387.61,71l-4.77-4.12L378,71a3.9,3.9,0,0,1,2.11,1.15,3.09,3.09,0,0,1,.63,2,3,3,0,0,1-1,2.35,4.79,4.79,0,0,1-3.28.89h-7.21a4.82,4.82,0,0,1-3.29-.89,3,3,0,0,1-1-2.32,3,3,0,0,1,.87-2.2,3.83,3.83,0,0,1,2.62-1L378,62.59l-8.4-7.18a3.74,3.74,0,0,1-2.51-1,3.06,3.06,0,0,1-.86-2.2,2.92,2.92,0,0,1,1-2.29,4.82,4.82,0,0,1,3.29-.89h6a4.82,4.82,0,0,1,3.29.89,2.89,2.89,0,0,1,1,2.26,3.47,3.47,0,0,1-1.75,3l3.87,3.22,3.81-3.28A3.44,3.44,0,0,1,385,52.29a3.05,3.05,0,0,1,1-2.38,4.85,4.85,0,0,1,3.29-.89h5.93a4.86,4.86,0,0,1,3.3.89,3,3,0,0,1,1,2.32,3,3,0,0,1-.86,2.17,3.78,3.78,0,0,1-2.54,1Z"/><path d="M406.84,41.22V52.34h1.34a2.81,2.81,0,0,1,1.92.52,1.75,1.75,0,0,1,.58,1.35,1.72,1.72,0,0,1-.58,1.34,2.81,2.81,0,0,1-1.92.52h-4.89a2.81,2.81,0,0,1-1.92-.52,1.74,1.74,0,0,1-.57-1.35,1.71,1.71,0,0,1,.56-1.34,2.51,2.51,0,0,1,1.75-.52V37.75a2.32,2.32,0,0,1-1.49-.6,1.77,1.77,0,0,1-.5-1.28,1.71,1.71,0,0,1,.58-1.35,2.81,2.81,0,0,1,1.92-.52l4.09,0,5.08,11.22,5-11.24,4.13,0a2.87,2.87,0,0,1,1.92.51,1.72,1.72,0,0,1,.57,1.34,1.74,1.74,0,0,1-.51,1.28,2.31,2.31,0,0,1-1.47.6V52.34a2.51,2.51,0,0,1,1.75.53,1.77,1.77,0,0,1,.56,1.34,1.72,1.72,0,0,1-.57,1.34,2.81,2.81,0,0,1-1.92.52h-4.91a2.77,2.77,0,0,1-1.9-.52,1.71,1.71,0,0,1-.58-1.35,1.69,1.69,0,0,1,.58-1.34,2.77,2.77,0,0,1,1.9-.52h1.36V41.22l-4.27,9.61h-3.24Z"/><path d="M433.17,37.75V52.34h8.05V48.81a2.81,2.81,0,0,1,.52-1.92,1.87,1.87,0,0,1,2.69,0,2.86,2.86,0,0,1,.52,1.92v7.26H427.28a2.81,2.81,0,0,1-1.92-.52,1.74,1.74,0,0,1-.57-1.35,1.72,1.72,0,0,1,.57-1.34,2.81,2.81,0,0,1,1.92-.52h2.17V37.75h-2.17a2.81,2.81,0,0,1-1.92-.52,1.76,1.76,0,0,1-.57-1.36,1.74,1.74,0,0,1,.57-1.35,2.81,2.81,0,0,1,1.92-.52l8.08,0a2.87,2.87,0,0,1,1.92.51,1.72,1.72,0,0,1,.57,1.34,1.76,1.76,0,0,1-.57,1.36,2.81,2.81,0,0,1-1.92.52Z"/></g></g></svg>